# xmcd
#
# Track frame offsets: 
#        150
#        17400
#        40975
#        62650
#
# Disc length: 1061 seconds
#
# Revision: 0
# Processed by: cddbd v1.5.2PL0 Copyright (c) Steve Scherf et al.
# Submitted via: ExactAudioCopy v1.0b1
#
DISCID=28042304
DTITLE=Blue Ocean Cult - I Can Fly CDM
DYEAR=1995
DGENRE=Eurodance
TTITLE0=I Can Fly (Single Mix)
TTITLE1=I Can Fly (Extended Mix)
TTITLE2=I Can Fly (Up To The Sky Mix)
TTITLE3=I Can Fly (Instrumental Mix)
EXTD=
EXTT0=
EXTT1=
EXTT2=
EXTT3=
PLAYORDER=
